<svg width="14" height="15" viewBox="0 0 14 15" fill="none" xmlns="http://www.w3.org/2000/svg">
<g clip-path="url(#clip0_33_309)">
<path d="M7.05188 2.25234C6.86067 2.35629 6.70019 2.51429 6.5881 2.70895C6.47601 2.90361 6.41668 3.12737 6.41663 3.35557L6.41604 4.95835H2.33329C2.02387 4.95835 1.72713 5.08895 1.50833 5.32142C1.28954 5.55389 1.16663 5.86918 1.16663 6.19794V8.6771L1.16954 8.77007C1.19162 9.08192 1.32382 9.37338 1.53964 9.58603C1.75546 9.79867 2.03896 9.91679 2.33329 9.91669L6.41604 9.91607L6.41663 11.5195C6.41668 11.7646 6.48513 12.0042 6.61332 12.208C6.74152 12.4118 6.92371 12.5706 7.13686 12.6644C7.35001 12.7582 7.58455 12.7828 7.81083 12.735C8.03711 12.6872 8.24497 12.5692 8.40813 12.3959L12.25 8.3139C12.4687 8.08145 12.5915 7.76621 12.5915 7.43752C12.5915 7.10883 12.4687 6.79359 12.25 6.56113L8.40813 2.47919C8.24497 2.30573 8.03706 2.18758 7.8107 2.1397C7.58434 2.09182 7.3497 2.11635 7.13646 2.2102L7.05188 2.25234Z" fill="#082F69"/>
</g>
<defs>
<clipPath id="clip0_33_309">
<rect width="14" height="14.875" fill="white"/>
</clipPath>
</defs>
</svg>
